# xmcd
#
# Track frame offsets:
#	150
#	12954
#	30927
#	48241
#	63783
#	76590
#	93594
#	106950
#	123387
#	136332
#	153824
#
# Disc length: 2215 seconds
#
# Revision: 1
# Processed by: cddbd v1.5.1PL2 Copyright (c) Steve Scherf et al.
# Submitted via: audiograbber 1.83.01
#
DISCID=7408a50b
DTITLE=Sylvie Rioux - Comme Un Vent De Liberté
DYEAR=1900
DGENRE=
TTITLE0=Soudainement Une Chanson
TTITLE1=Si Je Pouvais Changer Ta Vie
TTITLE2=Comme Un Vent De Liberté
TTITLE3=Une Larme En Un Bouquet De Fleurs
TTITLE4=L'acadie
TTITLE5=C'est Pas Drôle D'être Une Belle Mère
TTITLE6=Tu M'as Trouvé
TTITLE7=Tu N'avais Pas Le CHoix
TTITLE8=Et Up And Down
TTITLE9=Hier Et Demain
TTITLE10=Tu Es Ma Meilleure Amie
EXTD=
EXTT0=
EXTT1=
EXTT2=
EXTT3=
EXTT4=
EXTT5=
EXTT6=
EXTT7=
EXTT8=
EXTT9=
EXTT10=
PLAYORDER=
